<svg xmlns="http://www.w3.org/2000/svg" viewBox="0 0 105.42 105.4"><defs><style>.cls-1{fill:#eccd94;}.cls-1,.cls-10,.cls-11,.cls-12,.cls-2,.cls-3,.cls-4,.cls-5,.cls-6,.cls-7,.cls-8,.cls-9{fill-rule:evenodd;}.cls-2{fill:#c09d6d;}.cls-3{fill:#ffebbc;}.cls-4{fill:#f8e2ae;}.cls-5{fill:#d2b07f;}.cls-6{fill:#6e271a;}.cls-7{fill:#e0590f;}.cls-8{fill:#b14623;}.cls-9{fill:#481c0e;}.cls-10{fill:#dabd86;}.cls-11{fill:#b58a5a;}.cls-12{fill:#f6b879;}</style></defs><g id="Camada_2" data-name="Camada 2"><g id="OBJECTS"><path class="cls-1" d="M37.69,2.2A52.68,52.68,0,1,0,103.2,37.69,52.68,52.68,0,0,0,37.69,2.2Z"/><path class="cls-1" d="M13.59,41.83a3.9,3.9,0,1,1-7.48-2.2,49.72,49.72,0,0,1,9.46-17.58A52.22,52.22,0,0,1,31.28,9.29a3.91,3.91,0,0,1,3.64,6.91A44.19,44.19,0,0,0,21.56,27a41.84,41.84,0,0,0-8,14.8Zm32-29.59a3.9,3.9,0,1,1-1.71-7.6c1-.23,2.12-.44,3.25-.62s2.17-.3,3.27-.4a3.89,3.89,0,0,1,.7,7.75c-.94.09-1.86.2-2.78.35S46.53,12,45.59,12.24Z"/><path class="cls-2" d="M96.3,43.05A50.16,50.16,0,0,1,1.87,66.61a52.69,52.69,0,1,0,82.53-56A49.94,49.94,0,0,1,96.3,43.05Z"/><path class="cls-3" d="M1.55,40.13c6-1.74,14.08-4.19,20.09-6.25,10.67-3.64,16.16-10.67,23.24-13C50,19.28,71.57,13.16,83.35,9.83A52.7,52.7,0,0,1,97.91,25.58C87.39,32.16,62.52,45.88,56.18,48c-7.88,2.57-37.58,10.3-39.52,10-1-.19-9.78.47-16.49-1.6A52.69,52.69,0,0,1,1.55,40.13Z"/><path class="cls-4" d="M5.5,76.12c15.38-4.65,39.24-11.73,44.74-12.65,8.28-1.38,26.72-1.21,40-5.17a120.33,120.33,0,0,0,15.17-5.86,52.47,52.47,0,0,1-2.68,16.82c-10,3.38-28.43,9.23-36.62,9.72-7.64.46-31.11,8.91-46.48,14.73A52.39,52.39,0,0,1,5.5,76.12Z"/><path class="cls-5" d="M5.5,76.12l2.34-.71A50.33,50.33,0,0,0,29,90.2c-3.32,1.21-6.51,2.41-9.41,3.51A52.91,52.91,0,0,1,6.78,78.55l-.07-.14c-.11-.18-.21-.37-.31-.55q-.47-.85-.9-1.74ZM94.34,57c3.89-1.36,7.69-3,11-4.5v.25a52.78,52.78,0,0,1-.81,9.22l0,.28c0,.25-.09.5-.14.75a54.22,54.22,0,0,1-1.67,6.31C98,70.85,91.41,73,84.92,74.86A50,50,0,0,0,94.34,57Z"/><path class="cls-6" d="M1.69,52.71s18.24-6.18,25.09-8.39,11.84-12,19.74-15.15c7-2.76,27.27-9.18,43.12-14.07a52.86,52.86,0,0,1,8.64,11.1L77.74,38.67.46,59.23c0-.23-.06-.45-.09-.69-.12-1-.2-2.11-.25-3.15Z"/><path class="cls-7" d="M12.61,86.86C22.54,83.28,43.68,75.66,48,74.32c5.66-1.76,17,5.27,30.5-.08,8.23-3.26,18.61-7.94,26-11.37a51.91,51.91,0,0,1-2.39,8.41L34.53,102.16A53.1,53.1,0,0,1,12.61,86.86Z"/><path class="cls-8" d="M12.61,86.86l5.74-2.07a49.93,49.93,0,0,0,27.8,8.41,50.69,50.69,0,0,0,10.3-1.06l-21.92,10a53.1,53.1,0,0,1-21.92-15.3ZM88.38,70.1c5.68-2.46,11.43-5.07,16-7.21A52.65,52.65,0,0,1,102,71.3L76.51,83A50.14,50.14,0,0,0,88.38,70.1Z"/><path class="cls-6" d="M22.54,95.88C26.86,94,48.77,84.29,53.42,82.42c5.15-2.08,13.31,2.06,23.91-2.49,6.5-2.79,17.92-8.11,25.8-11.82A52.69,52.69,0,0,1,22.54,95.88Z"/><path class="cls-9" d="M22.54,95.88c1.59-.71,5.57-2.47,10.2-4.5A50.18,50.18,0,0,0,82.4,77.7c6.41-2.88,14.6-6.7,20.69-9.57a52.77,52.77,0,0,1-41,36.43h0a52.85,52.85,0,0,1-9.31.82,53.48,53.48,0,0,1-10-.94l-.08,0-.85-.17-.5-.11-.32-.07A52.68,52.68,0,0,1,22.54,95.88Z"/><path class="cls-10" d="M100.18,75.62c-6.58,3.5-24.52,13-27.24,14.53-3.34,1.85-10.62.32-20.72,5.74a127.08,127.08,0,0,0-12.42,7.9A52.28,52.28,0,0,1,27.62,99c8.54-4.4,20.92-10.75,24.23-12.21,5.19-2.29,14.12,1,19.82-1.64l30.38-13.89C101.49,72.76,100.86,74.21,100.18,75.62Z"/><path class="cls-11" d="M100.14,75.64c-6.6,3.51-24.49,13-27.2,14.51-3.34,1.85-10.62.32-20.72,5.74a127.08,127.08,0,0,0-12.42,7.9A52.28,52.28,0,0,1,27.62,99c3.68-1.89,8.07-4.15,12.15-6.23A50.08,50.08,0,0,0,76.51,83L102,71.3Q101.17,73.52,100.14,75.64Z"/><path class="cls-6" d="M4.1,73c10-3.41,32-10.77,40.65-12.93,11.41-2.85,28.46,1.33,42.73-2.56a89.71,89.71,0,0,0,17.88-7.36c0,1,.07,2.1.06,3.14-6.86,3.83-17,8.89-25.33,10.68C66,67,61.26,61,38.64,70.53,28.12,75,17.84,79.61,9.86,83.33A51.64,51.64,0,0,1,4.1,73Z"/><path class="cls-9" d="M4.1,73l1.45-.5a50.79,50.79,0,0,0,8.36,9c-1.41.64-2.76,1.27-4.05,1.87A51.64,51.64,0,0,1,4.1,73ZM94.86,55a104.46,104.46,0,0,0,10.47-4.87c0,.84.06,1.69.06,2.54,0,.2,0,.4,0,.6-3.34,1.86-7.45,4-11.75,5.94C94.1,57.87,94.51,56.46,94.86,55Z"/><path class="cls-7" d="M5.3,29.75c7.87-2.37,17.23-5.24,20.71-6.54,6.44-2.41,8.5-7.71,16-9.81C47.16,12,64.64,7.58,75.09,5a51.61,51.61,0,0,0-7-2.69C58.12,4.65,42.32,8.35,34.94,10a30.23,30.23,0,0,1-13.37.19A53,53,0,0,0,5.3,29.75Z"/><path class="cls-7" d="M.12,55.41C11.43,52.29,28,47.61,34.4,45.24c10.13-3.74,9.39-10,16.14-12.45s6.2-2.28,9.19-3.14,9.83,5.66,16.64,3.05,4.58-7.85,9.36-10c2.32-1,5.3-2.35,7.74-3.41a52.39,52.39,0,0,1,8.18,13.82L1.68,65.73A54.29,54.29,0,0,1,.37,58.54C.25,57.49.17,56.45.12,55.41Z"/><path class="cls-8" d="M90.91,20.41l2.54-1.12a53,53,0,0,1,8.18,13.83l-6,1.94A49.67,49.67,0,0,0,90.91,20.41Z"/><path class="cls-3" d="M13.59,41.83a3.9,3.9,0,1,1-7.48-2.2,49.72,49.72,0,0,1,9.46-17.58A52.22,52.22,0,0,1,31.28,9.29a3.91,3.91,0,0,1,3.64,6.91A44.19,44.19,0,0,0,21.56,27a41.84,41.84,0,0,0-8,14.8Zm32-29.59a3.9,3.9,0,1,1-1.71-7.6c1-.23,2.12-.44,3.25-.62s2.17-.3,3.27-.4a3.89,3.89,0,0,1,.7,7.75c-.94.09-1.86.2-2.78.35S46.53,12,45.59,12.24Z"/><path class="cls-7" d="M70.2,51.08a7.85,7.85,0,1,0-7.84-7.84A7.86,7.86,0,0,0,70.2,51.08Z"/><path class="cls-7" d="M61.07,54.75a3,3,0,1,0-3-3A3,3,0,0,0,61.07,54.75Z"/><path class="cls-7" d="M82.18,44.9a1.67,1.67,0,1,0-1.66-1.66A1.67,1.67,0,0,0,82.18,44.9Z"/><path class="cls-12" d="M70.2,47.24a4,4,0,1,0-4-4A4,4,0,0,0,70.2,47.24Z"/><path class="cls-12" d="M61.84,43.52a2,2,0,1,0-2-2A2,2,0,0,0,61.84,43.52Z"/><path class="cls-12" d="M75.53,39a1.47,1.47,0,1,0-1.47-1.47A1.47,1.47,0,0,0,75.53,39Z"/><path class="cls-7" d="M63.35,79.65a5.74,5.74,0,1,0-5.74-5.74A5.75,5.75,0,0,0,63.35,79.65Z"/><path class="cls-7" d="M74.47,73.44A2.46,2.46,0,1,0,72,71,2.47,2.47,0,0,0,74.47,73.44Z"/><path class="cls-4" d="M40,82.65a5.14,5.14,0,1,0-5.14-5.14A5.15,5.15,0,0,0,40,82.65Z"/><path class="cls-6" d="M46.7,64.74a5.14,5.14,0,1,0-5.14-5.14A5.14,5.14,0,0,0,46.7,64.74Z"/><path class="cls-6" d="M37.45,59.53a1.3,1.3,0,1,0-1.3-1.3A1.3,1.3,0,0,0,37.45,59.53Z"/><path class="cls-6" d="M54.17,58.06a1.3,1.3,0,1,0-1.3-1.29A1.29,1.29,0,0,0,54.17,58.06Z"/><path class="cls-6" d="M71.24,26.41a5.86,5.86,0,1,0-5.87-5.86A5.87,5.87,0,0,0,71.24,26.41Z"/><path class="cls-4" d="M71.24,23.7a3.15,3.15,0,1,0-3.15-3.15A3.15,3.15,0,0,0,71.24,23.7Z"/><path class="cls-4" d="M67.27,28.26a1.6,1.6,0,1,0-1.59-1.59A1.6,1.6,0,0,0,67.27,28.26Z"/><path class="cls-4" d="M77.29,22.92a.8.8,0,0,0,.8-.8.8.8,0,0,0-1.6,0A.8.8,0,0,0,77.29,22.92Z"/><path class="cls-6" d="M79.94,19.91a2,2,0,1,0-2-2A2,2,0,0,0,79.94,19.91Z"/><path class="cls-6" d="M62.74,22.07a1.13,1.13,0,1,0,0-2.25,1.13,1.13,0,0,0,0,2.25Z"/></g></g></svg>