<svg xmlns="http://www.w3.org/2000/svg" viewBox="0 0 463.55 464.67"><defs><style>.cls-1{fill:#899095;}.cls-1,.cls-2{fill-rule:evenodd;}.cls-2{fill:#fff;}</style></defs><g id="Camada_2" data-name="Camada 2"><g id="OBJECTS"><path class="cls-1" d="M321.67,141a1.73,1.73,0,1,0-1.72-1.72A1.73,1.73,0,0,0,321.67,141Z"/><path class="cls-1" d="M290,7.24a1.73,1.73,0,1,0-1.72-1.72A1.73,1.73,0,0,0,290,7.24Z"/><path class="cls-1" d="M136.87,109.29a1.73,1.73,0,1,0-1.72-1.72A1.73,1.73,0,0,0,136.87,109.29Z"/><path class="cls-1" d="M147.91,225.14a1.73,1.73,0,1,0-1.73-1.73A1.73,1.73,0,0,0,147.91,225.14Z"/><path class="cls-1" d="M23.79,317.53a1.72,1.72,0,1,0-1.73-1.72A1.72,1.72,0,0,0,23.79,317.53Z"/><path class="cls-1" d="M324.43,302.36a1.72,1.72,0,1,0-1.72-1.72A1.72,1.72,0,0,0,324.43,302.36Z"/><path class="cls-1" d="M172.73,434.76A1.73,1.73,0,1,0,171,433,1.73,1.73,0,0,0,172.73,434.76Z"/><path class="cls-1" d="M451.31,146.53a1.73,1.73,0,1,0-1.73-1.73A1.73,1.73,0,0,0,451.31,146.53Z"/><path class="cls-1" d="M15.51,11.38a1.73,1.73,0,1,0-1.72-1.73A1.74,1.74,0,0,0,15.51,11.38Z"/><path class="cls-1" d="M415.45,4.48a1.73,1.73,0,1,0-1.72-1.72A1.72,1.72,0,0,0,415.45,4.48Z"/><path class="cls-1" d="M273.4,313.4a1.73,1.73,0,1,0-1.72-1.73A1.74,1.74,0,0,0,273.4,313.4Z"/><path class="cls-1" d="M315.38,348.05a.95.95,0,1,0-.95-.95A1,1,0,0,0,315.38,348.05Z"/><path class="cls-1" d="M417.43,306.67a.95.95,0,1,0-.95-.94A.95.95,0,0,0,417.43,306.67Z"/><path class="cls-1" d="M456.05,457a.95.95,0,1,0-.95-.94A.94.94,0,0,0,456.05,457Z"/><path class="cls-1" d="M196.78,451.48a1,1,0,1,0-.95-1A1,1,0,0,0,196.78,451.48Z"/><path class="cls-1" d="M278.14,450.1a1,1,0,1,0-.94-1A.95.95,0,0,0,278.14,450.1Z"/><path class="cls-1" d="M187.12,294.26a.95.95,0,1,0-.94-.95A.94.94,0,0,0,187.12,294.26Z"/><path class="cls-1" d="M154,372.87a.95.95,0,1,0-.95-.95A.95.95,0,0,0,154,372.87Z"/><path class="cls-1" d="M67.14,306.67a.95.95,0,1,0-.94-.94A.94.94,0,0,0,67.14,306.67Z"/><path class="cls-1" d="M3.7,386.66a1,1,0,1,0-.94-1A.94.94,0,0,0,3.7,386.66Z"/><path class="cls-1" d="M118.17,455.62a.95.95,0,1,0-1-.95A1,1,0,0,0,118.17,455.62Z"/><path class="cls-1" d="M1,257a1,1,0,0,0,0-1.9A.95.95,0,1,0,1,257Z"/><path class="cls-1" d="M105.76,143.94a.95.95,0,1,0-1-.95A.95.95,0,0,0,105.76,143.94Z"/><path class="cls-1" d="M24.39,126a.95.95,0,1,0-.95-.94A.95.95,0,0,0,24.39,126Z"/><path class="cls-1" d="M17.5,46a1,1,0,1,0-.95-1A.95.95,0,0,0,17.5,46Z"/><path class="cls-1" d="M96.1,3.27a.95.95,0,1,0-.94-.94A.94.94,0,0,0,96.1,3.27Z"/><path class="cls-1" d="M162.3,48.78a.95.95,0,1,0-1-.94A.95.95,0,0,0,162.3,48.78Z"/><path class="cls-1" d="M205.05,4.65a.95.95,0,1,0-1-.94A.95.95,0,0,0,205.05,4.65Z"/><path class="cls-1" d="M188.5,146.7a1,1,0,1,0-.94-.95A.95.95,0,0,0,188.5,146.7Z"/><path class="cls-1" d="M276.76,153.59a.95.95,0,1,0-.94-.94A.94.94,0,0,0,276.76,153.59Z"/><path class="cls-1" d="M319.52,77.75a1,1,0,1,0-.95-1A.95.95,0,0,0,319.52,77.75Z"/><path class="cls-1" d="M291.93,32.24a1,1,0,1,0-.94-1A.95.95,0,0,0,291.93,32.24Z"/><path class="cls-1" d="M371.92,1.9a1,1,0,0,0,.95-.95A1,1,0,1,0,371,1,1,1,0,0,0,371.92,1.9Z"/><path class="cls-1" d="M458.81,91.54a1,1,0,1,0-.95-1A.95.95,0,0,0,458.81,91.54Z"/><path class="cls-1" d="M409.16,153.59a.95.95,0,0,0,0-1.89.95.95,0,1,0,0,1.89Z"/><path class="cls-1" d="M460.18,230.82a.95.95,0,1,0-.94-.94A.94.94,0,0,0,460.18,230.82Z"/><path class="cls-1" d="M300.21,207.38a.95.95,0,1,0-.95-.95A1,1,0,0,0,300.21,207.38Z"/><path class="cls-1" d="M370.54,302.54a1,1,0,1,0-.94-1A1,1,0,0,0,370.54,302.54Z"/><path class="cls-1" d="M365,461.13a.95.95,0,1,0-.95-.95A.94.94,0,0,0,365,461.13Z"/><path class="cls-1" d="M461.56,364.6a1,1,0,1,0-.95-1A1,1,0,0,0,461.56,364.6Z"/><path class="cls-2" d="M149.43,19.6a.94.94,0,1,1,1.88,0v1.14h1.14a.94.94,0,0,1,0,1.88h-1.14v1.13a.94.94,0,0,1-1.88,0V22.62h-1.14a.94.94,0,1,1,0-1.88h1.14Z"/><path class="cls-2" d="M354.78,154.8a.94.94,0,1,1,1.88,0v1.13h1.14a.94.94,0,0,1,0,1.88h-1.14V159a.94.94,0,0,1-1.88,0v-1.14h-1.14a.94.94,0,0,1,0-1.88h1.14Z"/><path class="cls-2" d="M157.57,310.63a.94.94,0,0,1,1.88,0v1.14h1.13a.94.94,0,1,1,0,1.88h-1.13v1.13a.94.94,0,1,1-1.88,0v-1.13h-1.14a.94.94,0,0,1,0-1.88h1.14Z"/><path class="cls-2" d="M301,438.89a.95.95,0,0,1,1.89,0V440H304a.94.94,0,1,1,0,1.88h-1.13V443a.95.95,0,0,1-1.89,0V441.9h-1.13a.94.94,0,1,1,0-1.88H301Z"/><path class="cls-2" d="M22.42,157.55a.94.94,0,0,1,1.88,0v1.14h1.13a.94.94,0,1,1,0,1.88H24.3v1.13a.94.94,0,1,1-1.88,0v-1.13H21.28a.94.94,0,0,1,0-1.88h1.14Z"/><path class="cls-2" d="M318.37,6.71a.94.94,0,1,1,1.88,0V7.85h1.13a.94.94,0,0,1,0,1.88h-1.13v1.13a.94.94,0,1,1-1.88,0V9.73h-1.14a.94.94,0,1,1,0-1.88h1.14Z"/><path class="cls-2" d="M12.76,459.57a.95.95,0,0,1,1.89,0v1.14h1.13a.94.94,0,1,1,0,1.88H14.65v1.13a.95.95,0,1,1-1.89,0v-1.13H11.63a.94.94,0,0,1,0-1.88h1.13Z"/><path class="cls-2" d="M455.45,295.46a.94.94,0,0,1,1.88,0v1.14h1.14a.94.94,0,1,1,0,1.88h-1.14v1.13a.94.94,0,0,1-1.88,0v-1.13h-1.13a.94.94,0,0,1,0-1.88h1.13Z"/><path class="cls-2" d="M459.59,26.54a.94.94,0,0,1,1.88,0v1.13h1.13a.95.95,0,1,1,0,1.89h-1.13v1.13a.94.94,0,0,1-1.88,0V29.56h-1.14a.95.95,0,0,1,0-1.89h1.14Z"/></g></g></svg>